<svg xmlns="http://www.w3.org/2000/svg" xmlns:xlink="http://www.w3.org/1999/xlink" xmlns:lucid="lucid" width="200" height="260"><g transform="translate(-139.99999999999997 -300)" lucid:page-tab-id="0_0"><path d="M0 0h1323.2v1870.4H0z" fill="#fff"/><path d="M160 480h160v60H160z" stroke="#000" stroke-width="2" fill="#de5f85"/><use xlink:href="#a" transform="matrix(1,0,0,1,164.99999999999997,485) translate(67 28.6)"/><path d="M160 400h160v60H160z" stroke="#000" stroke-width="2" fill="#ef8d22"/><use xlink:href="#b" transform="matrix(1,0,0,1,164.99999999999997,405) translate(57.55 28.6)"/><path d="M160 320h160v60H160z" stroke="#000" stroke-width="2" fill="#a3d977"/><use xlink:href="#c" transform="matrix(1,0,0,1,164.99999999999997,325) translate(56.5 28.6)"/><defs><path d="M33 0v-248h34V0H33" id="d"/><path d="M30-248c87 1 191-15 191 75 0 78-77 80-158 76V0H30v-248zm33 125c57 0 124 11 124-50 0-59-68-47-124-48v98" id="e"/><g id="a"><use transform="matrix(0.05,0,0,0.05,0,0)" xlink:href="#d"/><use transform="matrix(0.05,0,0,0.05,5,0)" xlink:href="#e"/></g><path d="M127-220V0H93v-220H8v-28h204v28h-85" id="f"/><path d="M212-179c-10-28-35-45-73-45-59 0-87 40-87 99 0 60 29 101 89 101 43 0 62-24 78-52l27 14C228-24 195 4 139 4 59 4 22-46 18-125c-6-104 99-153 187-111 19 9 31 26 39 46" id="g"/><g id="b"><use transform="matrix(0.05,0,0,0.05,0,0)" xlink:href="#f"/><use transform="matrix(0.05,0,0,0.05,10.950000000000001,0)" xlink:href="#g"/><use transform="matrix(0.05,0,0,0.05,23.900000000000002,0)" xlink:href="#e"/></g><path d="M160-131c35 5 61 23 61 61C221 17 115-2 30 0v-248c76 3 177-17 177 60 0 33-19 50-47 57zm-97-11c50-1 110 9 110-42 0-47-63-36-110-37v79zm0 115c55-2 124 14 124-45 0-56-70-42-124-44v89" id="h"/><path d="M143 4C61 4 22-44 18-125c-5-107 100-154 193-111 17 8 29 25 37 43l-32 9c-13-25-37-40-76-40-61 0-88 39-88 99 0 61 29 100 91 101 35 0 62-11 79-27v-45h-74v-28h105v86C228-13 192 4 143 4" id="i"/><g id="c"><use transform="matrix(0.05,0,0,0.05,0,0)" xlink:href="#h"/><use transform="matrix(0.05,0,0,0.05,12,0)" xlink:href="#i"/><use transform="matrix(0.05,0,0,0.05,26,0)" xlink:href="#e"/></g></defs></g></svg>