<svg xmlns="http://www.w3.org/2000/svg" xmlns:xlink="http://www.w3.org/1999/xlink" xmlns:lucid="lucid" width="200" height="260"><g transform="translate(-139.99999999999997 -300)" lucid:page-tab-id="0_0"><path d="M0 0h1323.2v1870.4H0z" fill="#fff"/><path d="M160 480h160v60H160z" stroke="#000" stroke-width="2" fill="#de5f85"/><use xlink:href="#a" transform="matrix(1,0,0,1,164.99999999999997,485) translate(67 28.6)"/><path d="M160 400h160v60H160z" stroke="#000" stroke-width="2" fill="#d1bcd2"/><use xlink:href="#b" transform="matrix(1,0,0,1,164.99999999999997,405) translate(57.5 28.6)"/><path d="M160 320h160v60H160z" stroke="#000" stroke-width="2" fill="#de5f85"/><use xlink:href="#a" transform="matrix(1,0,0,1,164.99999999999997,325) translate(67 28.6)"/><defs><path d="M33 0v-248h34V0H33" id="c"/><path d="M30-248c87 1 191-15 191 75 0 78-77 80-158 76V0H30v-248zm33 125c57 0 124 11 124-50 0-59-68-47-124-48v98" id="d"/><g id="a"><use transform="matrix(0.05,0,0,0.05,0,0)" xlink:href="#c"/><use transform="matrix(0.05,0,0,0.05,5,0)" xlink:href="#d"/></g><path d="M30 0v-248h187v28H63v79h144v27H63v87h162V0H30" id="e"/><path d="M185-189c-5-48-123-54-124 2 14 75 158 14 163 119 3 78-121 87-175 55-17-10-28-26-33-46l33-7c5 56 141 63 141-1 0-78-155-14-162-118-5-82 145-84 179-34 5 7 8 16 11 25" id="f"/><g id="b"><use transform="matrix(0.05,0,0,0.05,0,0)" xlink:href="#e"/><use transform="matrix(0.05,0,0,0.05,12,0)" xlink:href="#f"/><use transform="matrix(0.05,0,0,0.05,24,0)" xlink:href="#d"/></g></defs></g></svg>