<svg xmlns="http://www.w3.org/2000/svg" xmlns:xlink="http://www.w3.org/1999/xlink" xmlns:lucid="lucid" width="200" height="340"><g transform="translate(-139.99999999999997 -220)" lucid:page-tab-id="0_0"><path d="M0 0h1323.2v1870.4H0z" fill="#fff"/><path d="M160 480h160v60H160z" stroke="#000" stroke-width="2" fill="#de5f85"/><use xlink:href="#a" transform="matrix(1,0,0,1,164.99999999999997,485) translate(67 28.6)"/><path d="M160 400h160v60H160z" stroke="#000" stroke-width="2" fill="#ffdba9"/><use xlink:href="#b" transform="matrix(1,0,0,1,164.99999999999997,405) translate(56.55 28.6)"/><path d="M160 320h160v60H160z" stroke="#000" stroke-width="2" fill="#d1bcd2"/><use xlink:href="#c" transform="matrix(1,0,0,1,164.99999999999997,325) translate(57.5 28.6)"/><path d="M160 240h160v60H160z" stroke="#000" stroke-width="2" fill="#de5f85"/><use xlink:href="#d" transform="matrix(1,0,0,1,164.99999999999997,245) translate(67 28.6)"/><defs><path d="M33 0v-248h34V0H33" id="e"/><path d="M30-248c87 1 191-15 191 75 0 78-77 80-158 76V0H30v-248zm33 125c57 0 124 11 124-50 0-59-68-47-124-48v98" id="f"/><g id="a"><use transform="matrix(0.05,0,0,0.05,0,0)" xlink:href="#e"/><use transform="matrix(0.05,0,0,0.05,5,0)" xlink:href="#f"/></g><path d="M232-93c-1 65-40 97-104 97C67 4 28-28 28-90v-158h33c8 89-33 224 67 224 102 0 64-133 71-224h33v155" id="g"/><path d="M30-248c118-7 216 8 213 122C240-48 200 0 122 0H30v-248zM63-27c89 8 146-16 146-99s-60-101-146-95v194" id="h"/><g id="b"><use transform="matrix(0.05,0,0,0.05,0,0)" xlink:href="#g"/><use transform="matrix(0.05,0,0,0.05,12.950000000000001,0)" xlink:href="#h"/><use transform="matrix(0.05,0,0,0.05,25.900000000000002,0)" xlink:href="#f"/></g><path d="M30 0v-248h187v28H63v79h144v27H63v87h162V0H30" id="i"/><path d="M185-189c-5-48-123-54-124 2 14 75 158 14 163 119 3 78-121 87-175 55-17-10-28-26-33-46l33-7c5 56 141 63 141-1 0-78-155-14-162-118-5-82 145-84 179-34 5 7 8 16 11 25" id="j"/><g id="c"><use transform="matrix(0.05,0,0,0.05,0,0)" xlink:href="#i"/><use transform="matrix(0.05,0,0,0.05,12,0)" xlink:href="#j"/><use transform="matrix(0.05,0,0,0.05,24,0)" xlink:href="#f"/></g><g id="d"><use transform="matrix(0.05,0,0,0.05,0,0)" xlink:href="#e"/><use transform="matrix(0.05,0,0,0.05,5,0)" xlink:href="#f"/></g></defs></g></svg>