<svg xmlns="http://www.w3.org/2000/svg" xmlns:xlink="http://www.w3.org/1999/xlink" xmlns:lucid="lucid" width="200" height="260"><g transform="translate(-139.99999999999997 -120)" lucid:page-tab-id="0_0"><path d="M0 0h1323.2v1870.4H0z" fill="#fff"/><path d="M160 300h160v60H160z" stroke="#000" stroke-width="2" fill="#de5f85"/><use xlink:href="#a" transform="matrix(1,0,0,1,164.99999999999997,305) translate(67 28.6)"/><path d="M160 220h160v60H160z" stroke="#000" stroke-width="2" fill="#ffdba9"/><use xlink:href="#b" transform="matrix(1,0,0,1,164.99999999999997,225) translate(56.55 28.6)"/><path d="M160 140h160v60H160z" stroke="#000" stroke-width="2" fill="#c7e8ac"/><use xlink:href="#c" transform="matrix(1,0,0,1,164.99999999999997,145) translate(61 28.6)"/><defs><path d="M33 0v-248h34V0H33" id="d"/><path d="M30-248c87 1 191-15 191 75 0 78-77 80-158 76V0H30v-248zm33 125c57 0 124 11 124-50 0-59-68-47-124-48v98" id="e"/><g id="a"><use transform="matrix(0.05,0,0,0.05,0,0)" xlink:href="#d"/><use transform="matrix(0.05,0,0,0.05,5,0)" xlink:href="#e"/></g><path d="M232-93c-1 65-40 97-104 97C67 4 28-28 28-90v-158h33c8 89-33 224 67 224 102 0 64-133 71-224h33v155" id="f"/><path d="M30-248c118-7 216 8 213 122C240-48 200 0 122 0H30v-248zM63-27c89 8 146-16 146-99s-60-101-146-95v194" id="g"/><g id="b"><use transform="matrix(0.05,0,0,0.05,0,0)" xlink:href="#f"/><use transform="matrix(0.05,0,0,0.05,12.950000000000001,0)" xlink:href="#g"/><use transform="matrix(0.05,0,0,0.05,25.900000000000002,0)" xlink:href="#e"/></g><path d="M194 0L95-120 63-95V0H30v-248h33v124l119-124h40L117-140 236 0h-42" id="h"/><path d="M30 0v-248h187v28H63v79h144v27H63v87h162V0H30" id="i"/><g id="c"><use transform="matrix(0.05,0,0,0.05,0,0)" xlink:href="#d"/><use transform="matrix(0.05,0,0,0.05,5,0)" xlink:href="#h"/><use transform="matrix(0.05,0,0,0.05,17,0)" xlink:href="#i"/></g></defs></g></svg>