<svg xmlns="http://www.w3.org/2000/svg" xmlns:xlink="http://www.w3.org/1999/xlink" xmlns:lucid="lucid" width="200" height="420"><g transform="translate(-139.99999999999997 -140)" lucid:page-tab-id="0_0"><path d="M0 0h1323.2v1870.4H0z" fill="#fff"/><path d="M160 480h160v60H160z" stroke="#000" stroke-width="2" fill="#de5f85"/><use xlink:href="#a" transform="matrix(1,0,0,1,164.99999999999997,485) translate(67 28.6)"/><path d="M160 400h160v60H160z" stroke="#000" stroke-width="2" fill="#ffdba9"/><use xlink:href="#b" transform="matrix(1,0,0,1,164.99999999999997,405) translate(56.55 28.6)"/><path d="M160 320h160v60H160z" stroke="#000" stroke-width="2" fill="#ffbbb1"/><use xlink:href="#c" transform="matrix(1,0,0,1,164.99999999999997,325) translate(46.025 28.6)"/><path d="M160 160h160v60H160z" stroke="#000" stroke-width="2" fill="#de5f85"/><use xlink:href="#a" transform="matrix(1,0,0,1,164.99999999999997,165) translate(67 28.6)"/><path d="M160 240h160v60H160z" stroke="#000" stroke-width="2" fill="#f9d2de"/><use xlink:href="#d" transform="matrix(1,0,0,1,164.99999999999997,245) translate(41.525 28.6)"/><defs><path d="M33 0v-248h34V0H33" id="e"/><path d="M30-248c87 1 191-15 191 75 0 78-77 80-158 76V0H30v-248zm33 125c57 0 124 11 124-50 0-59-68-47-124-48v98" id="f"/><g id="a"><use transform="matrix(0.05,0,0,0.05,0,0)" xlink:href="#e"/><use transform="matrix(0.05,0,0,0.05,5,0)" xlink:href="#f"/></g><path d="M232-93c-1 65-40 97-104 97C67 4 28-28 28-90v-158h33c8 89-33 224 67 224 102 0 64-133 71-224h33v155" id="g"/><path d="M30-248c118-7 216 8 213 122C240-48 200 0 122 0H30v-248zM63-27c89 8 146-16 146-99s-60-101-146-95v194" id="h"/><g id="b"><use transform="matrix(0.05,0,0,0.05,0,0)" xlink:href="#g"/><use transform="matrix(0.05,0,0,0.05,12.950000000000001,0)" xlink:href="#h"/><use transform="matrix(0.05,0,0,0.05,25.900000000000002,0)" xlink:href="#f"/></g><path d="M137 0h-34L2-248h35l83 218 83-218h36" id="i"/><path d="M195 0l-74-108L45 0H8l94-129-87-119h37l69 98 67-98h37l-84 118L233 0h-38" id="j"/><path d="M30 0v-248h33v221h125V0H30" id="k"/><path d="M205 0l-28-72H64L36 0H1l101-248h38L239 0h-34zm-38-99l-47-123c-12 45-31 82-46 123h93" id="l"/><path d="M190 0L58-211 59 0H30v-248h39L202-35l-2-213h31V0h-41" id="m"/><g id="c"><use transform="matrix(0.05,0,0,0.05,0,0)" xlink:href="#i"/><use transform="matrix(0.05,0,0,0.05,12,0)" xlink:href="#j"/><use transform="matrix(0.05,0,0,0.05,24,0)" xlink:href="#k"/><use transform="matrix(0.05,0,0,0.05,34,0)" xlink:href="#l"/><use transform="matrix(0.05,0,0,0.05,46,0)" xlink:href="#m"/></g><path d="M30 0v-248h187v28H63v79h144v27H63v87h162V0H30" id="n"/><path d="M59-47c-2 24 18 29 38 22v24C64 9 27 4 27-40v-127H5v-23h24l9-43h21v43h35v23H59v120" id="o"/><path d="M106-169C34-169 62-67 57 0H25v-261h32l-1 103c12-21 28-36 61-36 89 0 53 116 60 194h-32v-121c2-32-8-49-39-48" id="p"/><path d="M100-194c63 0 86 42 84 106H49c0 40 14 67 53 68 26 1 43-12 49-29l28 8c-11 28-37 45-77 45C44 4 14-33 15-96c1-61 26-98 85-98zm52 81c6-60-76-77-97-28-3 7-6 17-6 28h103" id="q"/><path d="M114-163C36-179 61-72 57 0H25l-1-190h30c1 12-1 29 2 39 6-27 23-49 58-41v29" id="r"/><path d="M117-194c89-4 53 116 60 194h-32v-121c0-31-8-49-39-48C34-167 62-67 57 0H25l-1-190h30c1 10-1 24 2 32 11-22 29-35 61-36" id="s"/><g id="d"><use transform="matrix(0.05,0,0,0.05,0,0)" xlink:href="#n"/><use transform="matrix(0.05,0,0,0.05,12,0)" xlink:href="#o"/><use transform="matrix(0.05,0,0,0.05,17,0)" xlink:href="#p"/><use transform="matrix(0.05,0,0,0.05,27,0)" xlink:href="#q"/><use transform="matrix(0.05,0,0,0.05,37,0)" xlink:href="#r"/><use transform="matrix(0.05,0,0,0.05,42.95,0)" xlink:href="#s"/><use transform="matrix(0.05,0,0,0.05,52.95,0)" xlink:href="#q"/><use transform="matrix(0.05,0,0,0.05,62.95,0)" xlink:href="#o"/></g></defs></g></svg>